HIERARCHY
ROOT hip
{
  OFFSET 0 0 0
  CHANNELS 6 Xposition Yposition Zposition Zrotation Yrotation Xrotation
  JOINT abdomen
  {
    OFFSET 0 20.6881 -0.73152
    CHANNELS 3 Zrotation Xrotation Yrotation
    JOINT chest
    {
      OFFSET 0 11.7043 -0.48768
      CHANNELS 3 Zrotation Xrotation Yrotation
      JOINT neck
      {
        OFFSET 0 22.1894 -2.19456
        CHANNELS 3 Zrotation Xrotation Yrotation
        JOINT head
        {
          OFFSET -0.24384 7.07133 1.2192
          CHANNELS 3 Zrotation Xrotation Yrotation
          JOINT leftEye
          {
            OFFSET 4.14528 8.04674 8.04672
            CHANNELS 3 Zrotation Xrotation Yrotation
            End Site
            {
              OFFSET 1 0 0
            }
          }
          JOINT rightEye
          {
            OFFSET -3.6576 8.04674 8.04672
            CHANNELS 3 Zrotation Xrotation Yrotation
            End Site
            {
              OFFSET 1 0 0
            }
          }
        }
      }
      JOINT rCollar
      {
        OFFSET -2.68224 19.2634 -4.8768
        CHANNELS 3 Zrotation Xrotation Yrotation
        JOINT rShldr
        {
          OFFSET -8.77824 -1.95073 1.46304
          CHANNELS 3 Zrotation Xrotation Yrotation
          JOINT rForeArm
          {
            OFFSET -28.1742 -1.7115 0.48768
            CHANNELS 3 Zrotation Xrotation Yrotation
            JOINT rHand
            {
              OFFSET -22.5879 0.773209 7.07136
              CHANNELS 3 Zrotation Xrotation Yrotation
              JOINT rThumb1
              {
                OFFSET -1.2192 -0.487915 3.41376
                CHANNELS 3 Zrotation Xrotation Yrotation
                JOINT rThumb2
                {
                  OFFSET -3.37035 -0.52449 3.41376
                  CHANNELS 3 Zrotation Xrotation Yrotation
                  End Site
                  {
                    OFFSET -1.78271 -1.18214 1.43049
                  }
                }
              }
              JOINT rIndex1
              {
                OFFSET -7.75947 0.938293 5.60832
                CHANNELS 3 Zrotation Xrotation Yrotation
                JOINT rIndex2
                {
                  OFFSET -2.54057 -0.884171 1.56538
                  CHANNELS 3 Zrotation Xrotation Yrotation
                  End Site
                  {
                    OFFSET -1.62519 -0.234802 1.16502
                  }
                }
              }
              JOINT rMid1
              {
                OFFSET -8.24714 1.18213 3.41376
                CHANNELS 3 Zrotation Xrotation Yrotation
                JOINT rMid2
                {
                  OFFSET -3.10165 -0.590103 1.0647
                  CHANNELS 3 Zrotation Xrotation Yrotation
                  End Site
                  {
                    OFFSET -2.48547 -0.328903 0.83742
                  }
                }
              }
              JOINT rRing1
              {
                OFFSET -8.82822 0.546677 1.51678
                CHANNELS 3 Zrotation Xrotation Yrotation
                JOINT rRing2
                {
                  OFFSET -2.60934 -0.819778 -0.0198488
                  CHANNELS 3 Zrotation Xrotation Yrotation
                  End Site
                  {
                    OFFSET -2.33842 -0.294052 0.168128
                  }
                }
              }
              JOINT rPinky1
              {
                OFFSET -8.27202 -0.0477905 -0.4584
                CHANNELS 3 Zrotation Xrotation Yrotation
                JOINT rPinky2
                {
                  OFFSET -1.82734 -0.647385 -0.700984
                  CHANNELS 3 Zrotation Xrotation Yrotation
                  End Site
                  {
                    OFFSET -1.69225 -0.51767 -0.607171
                  }
                }
              }
            }
          }
        }
      }
      JOINT lCollar
      {
        OFFSET 2.68224 19.2634 -4.8768
        CHANNELS 3 Zrotation Xrotation Yrotation
        JOINT lShldr
        {
          OFFSET 8.77824 -1.95073 1.46304
          CHANNELS 3 Zrotation Xrotation Yrotation
          JOINT lForeArm
          {
            OFFSET 28.1742 -1.7115 0.48768
            CHANNELS 3 Zrotation Xrotation Yrotation
            JOINT lHand
            {
              OFFSET 22.5879 0.773209 7.07136
              CHANNELS 3 Zrotation Xrotation Yrotation
              JOINT lThumb1
              {
                OFFSET 1.2192 -0.487915 3.41376
                CHANNELS 3 Zrotation Xrotation Yrotation
                JOINT lThumb2
                {
                  OFFSET 3.37035 -0.52449 3.41376
                  CHANNELS 3 Zrotation Xrotation Yrotation
                  End Site
                  {
                    OFFSET 1.78271 -1.18214 1.43049
                  }
                }
              }
              JOINT lIndex1
              {
                OFFSET 7.75947 0.938293 5.60832
                CHANNELS 3 Zrotation Xrotation Yrotation
                JOINT lIndex2
                {
                  OFFSET 2.54057 -0.884171 1.56538
                  CHANNELS 3 Zrotation Xrotation Yrotation
                  End Site
                  {
                    OFFSET 1.62519 -0.234802 1.16502
                  }
                }
              }
              JOINT lMid1
              {
                OFFSET 8.24714 1.18213 3.41376
                CHANNELS 3 Zrotation Xrotation Yrotation
                JOINT lMid2
                {
                  OFFSET 3.10165 -0.590103 1.0647
                  CHANNELS 3 Zrotation Xrotation Yrotation
                  End Site
                  {
                    OFFSET 2.48547 -0.328903 0.83742
                  }
                }
              }
              JOINT lRing1
              {
                OFFSET 8.82822 0.546677 1.51678
                CHANNELS 3 Zrotation Xrotation Yrotation
                JOINT lRing2
                {
                  OFFSET 2.60934 -0.819778 -0.0198488
                  CHANNELS 3 Zrotation Xrotation Yrotation
                  End Site
                  {
                    OFFSET 2.33842 -0.294052 0.168128
                  }
                }
              }
              JOINT lPinky1
              {
                OFFSET 8.27202 -0.0477905 -0.4584
                CHANNELS 3 Zrotation Xrotation Yrotation
                JOINT lPinky2
                {
                  OFFSET 1.82734 -0.647385 -0.700984
                  CHANNELS 3 Zrotation Xrotation Yrotation
                  End Site
                  {
                    OFFSET 1.69225 -0.51767 -0.607171
                  }
                }
              }
            }
          }
        }
      }
    }
  }
  JOINT rButtock
  {
    OFFSET -8.77824 4.35084 1.2192
    CHANNELS 3 Zrotation Xrotation Yrotation
    JOINT rThigh
    {
      OFFSET 0 -1.70687 -2.19456
      CHANNELS 3 Zrotation Xrotation Yrotation
      JOINT rShin
      {
        OFFSET 0 -36.8199 0.73152
        CHANNELS 3 Zrotation Xrotation Yrotation
        JOINT rFoot
        {
          OFFSET 0.73152 -45.1104 -5.12064
          CHANNELS 3 Zrotation Xrotation Yrotation
          End Site
          {
            OFFSET -1.1221 -3.69964 12.103
          }
        }
      }
    }
  }
  JOINT lButtock
  {
    OFFSET 8.77824 4.35084 1.2192
    CHANNELS 3 Zrotation Xrotation Yrotation
    JOINT lThigh
    {
      OFFSET 0 -1.70687 -2.19456
      CHANNELS 3 Zrotation Xrotation Yrotation
      JOINT lShin
      {
        OFFSET 0 -36.8199 0.73152
        CHANNELS 3 Zrotation Xrotation Yrotation
        JOINT lFoot
        {
          OFFSET -0.73152 -45.1104 -5.12064
          CHANNELS 3 Zrotation Xrotation Yrotation
          End Site
          {
            OFFSET 1.1221 -3.69964 12.103
          }
        }
      }
    }
  }
}
MOTION
Frames:	4
Frame Time:	0.00833333
-13.211200000000002 65.10000000000001 18.1929 0.846025 -73.354063 2.986891 -0.064081 0.514551 7.098983 -1.773627 -11.164324 9.918359 15.062226 24.2591 166.724568 -1.993373 25.164351 -127.618459 -0.002256 0.0 -0.00086 -0.002256 0.0 -0.00086 -150.168361 21.535223 155.275331 16.111311 -65.990349 18.655459 -68.653033 -67.735739 57.111245 -0.09847 -47.295209 -6.653544 -2.60745 2.554952 0.457736 32.209403 -49.980773 -16.088033 2.32499 -3.867919 -1.260371 5.419665 9.218746 1.258089 -125.643882 49.840298 115.274774 -163.852077 -7.055306 143.303353 -145.117185 0.18528 -179.187147 -153.33535 -18.943504 -176.46815 8.578836 27.211899 7.534766 -146.360008 6.931684 -142.368396 9.652012 34.836233 -11.198791 -178.195269 -32.073539 -163.589191 162.415723 62.059493 163.409924 4.963073 16.069146 -0.19681 0.655977 0.646524 -0.10437 137.030548 -39.73434 -118.314926 -19.568998 -35.040191 5.985361 -20.173912 -7.507812 2.854617 -7.903979 -24.807671 3.01191 -10.158861 -21.568972 1.546702 69.298137 72.946712 -87.016938 -2.740843 -44.135505 11.513323 156.517815 54.249782 150.180451 26.106367 -40.31269 26.620656 -179.984515 75.750077 -0.012741 172.846912 48.759408 -124.901958 -66.073401 -19.742515 50.07863 -136.07516 -50.545429 -3.996125 -0.000882 0.001272 -0.0 17.322534 -34.588706 28.785372 -0.679388 61.198283 -30.667547 -47.734553 -19.466988 16.598579
-13.1327 64.9839 19.0687 1.466786 -73.393969 2.027177 -0.040997 -3.877049 179.393703 0.75712 6.593153 -161.966049 1.059503 12.093483 -59.272924 15.927199 2.587492 99.235189 6.8e-05 0.0 0.002844 6.8e-05 0.0 0.002844 -150.168673 21.535435 155.275823 -4.494254 -0.687157 9.706316 77.46477 -60.48152 -153.917489 -26.731657 30.598315 7.998485 -103.200034 36.331221 60.111054 -127.704998 -15.628323 73.367778 -152.105681 -18.556003 121.368812 165.309408 -59.28033 103.586867 1.280093 -3.803257 -0.680484 -163.266628 -4.708218 143.345203 -0.000735 0.022818 0.005857 -6.188211 62.268785 18.861464 15.08105 52.519809 11.937676 -160.226768 53.206638 -149.240286 0.27356 1.606725 -0.361403 134.974278 54.25216 -138.492468 -68.131727 66.009813 123.751051 -177.119245 3.949846 -145.444833 -71.831128 -48.264355 -25.791003 11.923655 -70.470624 46.023388 16.304209 21.364876 -11.141853 -0.324432 11.887347 -1.7663 -23.904378 -61.333721 -1.400633 11.634643 33.359259 -9.191865 78.57229 -72.041439 95.867449 -14.609264 15.877395 2.70784 86.000812 -50.496769 84.370758 153.897189 36.669759 147.105068 -179.996164 75.749512 -0.003958 171.638374 51.225359 10.676798 50.381081 62.364854 -168.007538 134.602938 69.73594 -52.724109 -179.998011 75.748157 -0.0 -160.887839 36.09206 -180.0 31.809573 -69.954594 95.52386 4.646601 41.261138 82.638802
-13.071 64.88239999999999 19.9479 2.082889 -73.438016 1.059988 -0.137992 1.228848 -0.002789 -1.030374 -11.398232 17.500656 3.813728 22.784422 -125.956958 14.302579 19.550626 164.129868 0.003444 -0.0 -0.001167 -0.002179 0.0 -9.9e-05 3.206429 -26.010303 -5.106313 -148.555194 10.151672 170.722659 -138.30044 -13.905353 -29.492513 18.676058 -72.796924 4.601474 -174.615595 -12.272028 89.845479 -71.757744 3.875778 21.009733 -46.208859 39.65345 36.317387 -10.993656 23.6298 4.699518 -0.571342 1.648389 0.321302 3.17242 0.195012 -0.00064 -70.379966 -72.130558 -87.279728 14.727051 0.863842 -4.414056 32.029497 83.320174 6.214976 -25.84816 -40.673185 -25.840761 8.482442 32.160975 -9.929728 -25.416571 -60.680573 -25.534712 -139.196037 -44.825688 -86.650223 -179.796847 12.753293 -145.443335 165.648772 -3.320998 -89.684629 20.743209 -37.411319 -7.438896 93.640388 40.182679 -78.833627 -1.221142 8.153976 3.994983 152.125166 16.402314 -138.011226 0.790502 11.273063 -2.256661 0.008403 3.557213 -1.118822 81.0732 78.725914 -94.21553 -26.860411 80.011584 -10.209996 -9.684455 25.67099 -5.06978 0.006722 -0.001528 0.006722 -6.45913 -24.209179 66.651353 76.46736 -2.622873 90.218502 33.665628 1.584692 171.128522 -179.966809 75.751169 -0.027309 -161.414096 37.744618 56.553907 69.421697 29.523385 20.793082 -8.696663 5.986833 -121.194716
-13.0279 64.7759 20.8316 2.619714 -73.474888 0.168267 0.309249 1.521369 -9.646089 0.414148 -11.506815 27.405431 20.782653 18.256196 116.437716 -12.232894 16.099095 -77.201791 -0.000542 -0.0 0.004711 -0.001648 0.0 -0.00069 -9.65202 34.836057 11.199737 -123.315399 51.087387 137.707009 11.668686 47.398877 -162.381915 -165.211207 16.503058 138.184391 -90.496216 38.313318 51.260809 128.892323 -52.415998 56.908339 24.074327 -42.306915 -5.560287 125.960862 -63.505448 64.68185 -148.320138 24.248748 135.133904 -163.463437 -5.640782 143.08838 -0.013273 -1.323234 -0.415378 -78.191402 78.782447 91.712042 -149.122367 25.572684 -145.198089 -173.965655 72.903791 -141.511133 155.614135 -4.236121 -161.991863 70.982591 87.770508 -86.02794 -52.504067 -0.283018 16.77558 155.874962 58.9498 -131.917141 -178.045845 -19.289745 -88.935409 80.25663 11.971365 -25.802195 158.228757 -29.848105 -122.590407 25.65059 47.517645 -14.970135 36.034539 51.724101 -29.830566 -167.99236 -64.089884 -133.007468 71.926189 72.972932 -89.772494 73.145636 -82.479649 90.241771 44.84046 -48.032422 43.620029 -2.454653 -2.399848 1.312602 -179.80421 75.74958 -0.150905 172.596435 50.166188 -180.0 -21.273842 -68.043936 84.875979 -27.721798 -34.96478 57.793394 179.980385 75.748733 0.013421 -158.362673 36.281158 -124.778757 -65.623659 -29.259746 153.258258 -108.086474 48.035847 23.956089
